C:\Users\Nicos\Documents\OpenSimProjects\SprintingProject\Study1\PredictiveResults\IC_pred_Sprinting_optimum_28-October-2023__13-58-45_p02_maxVel_01___IKTD_Minus_6_GRF.mot
version=1
nRows=6
nColumns=127
inDegrees=yes
endheader
time	ground_force_vx	ground_force_vy	ground_force_vz	ground_force_px	ground_force_py	ground_force_pz	ground_torque_x	ground_torque_y	ground_torque_z	1_ground_force_vx	1_ground_force_vy	1_ground_force_vz	1_ground_force_px	1_ground_force_py	1_ground_force_pz	1_ground_torque_x	1_ground_torque_y	1_ground_torque_z	2_ground_force_vx	2_ground_force_vy	2_ground_force_vz	2_ground_force_px	2_ground_force_py	2_ground_force_pz	2_ground_torque_x	2_ground_torque_y	2_ground_torque_z	3_ground_force_vx	3_ground_force_vy	3_ground_force_vz	3_ground_force_px	3_ground_force_py	3_ground_force_pz	3_ground_torque_x	3_ground_torque_y	3_ground_torque_z	4_ground_force_vx	4_ground_force_vy	4_ground_force_vz	4_ground_force_px	4_ground_force_py	4_ground_force_pz	4_ground_torque_x	4_ground_torque_y	4_ground_torque_z	5_ground_force_vx	5_ground_force_vy	5_ground_force_vz	5_ground_force_px	5_ground_force_py	5_ground_force_pz	5_ground_torque_x	5_ground_torque_y	5_ground_torque_z	6_ground_force_vx	6_ground_force_vy	6_ground_force_vz	6_ground_force_px	6_ground_force_py	6_ground_force_pz	6_ground_torque_x	6_ground_torque_y	6_ground_torque_z	7_ground_force_vx	7_ground_force_vy	7_ground_force_vz	7_ground_force_px	7_ground_force_py	7_ground_force_pz	7_ground_torque_x	7_ground_torque_y	7_ground_torque_z	8_ground_force_vx	8_ground_force_vy	8_ground_force_vz	8_ground_force_px	8_ground_force_py	8_ground_force_pz	8_ground_torque_x	8_ground_torque_y	8_ground_torque_z	9_ground_force_vx	9_ground_force_vy	9_ground_force_vz	9_ground_force_px	9_ground_force_py	9_ground_force_pz	9_ground_torque_x	9_ground_torque_y	9_ground_torque_z	10_ground_force_vx	10_ground_force_vy	10_ground_force_vz	10_ground_force_px	10_ground_force_py	10_ground_force_pz	10_ground_torque_x	10_ground_torque_y	10_ground_torque_z	11_ground_force_vx	11_ground_force_vy	11_ground_force_vz	11_ground_force_px	11_ground_force_py	11_ground_force_pz	11_ground_torque_x	11_ground_torque_y	11_ground_torque_z	12_ground_force_vx	12_ground_force_vy	12_ground_force_vz	12_ground_force_px	12_ground_force_py	12_ground_force_pz	12_ground_torque_x	12_ground_torque_y	12_ground_torque_z	13_ground_force_vx	13_ground_force_vy	13_ground_force_vz	13_ground_force_px	13_ground_force_py	13_ground_force_pz	13_ground_torque_x	13_ground_torque_y	13_ground_torque_z
0.160517	-0.000000	0.000000	0.000000	0.538512	0.079735	0.437171	0.000000	0.000000	0.000000	-0.000000	0.000000	0.000000	0.548401	0.101954	0.457039	0.000000	0.000000	0.000000	-0.000000	0.000000	0.000000	0.557859	0.113867	0.453116	0.000000	0.000000	0.000000	-0.000000	0.000000	0.000000	0.555444	0.111762	0.430914	0.000000	0.000000	0.000000	-0.000000	0.000000	0.000000	0.571736	0.156987	0.481313	0.000000	0.000000	0.000000	-0.000000	0.000000	0.000000	0.561270	0.128474	0.447204	0.000000	0.000000	0.000000	-0.000000	0.000000	0.000000	0.574913	0.186900	0.423558	0.000000	0.000000	0.000000	-0.000000	0.000000	-0.000000	1.685411	0.115306	0.146408	0.000000	0.000000	0.000000	-0.000000	0.000000	-0.000000	1.645549	0.125537	0.124970	0.000000	0.000000	0.000000	-0.000000	0.000000	-0.000000	1.611812	0.127753	0.133531	0.000000	0.000000	0.000000	-0.000000	0.000000	-0.000000	1.612267	0.122856	0.154033	0.000000	0.000000	0.000000	-0.000000	0.000000	-0.000000	1.535525	0.149186	0.105822	0.000000	0.000000	0.000000	-0.000000	0.000000	-0.000000	1.583542	0.132154	0.138364	0.000000	0.000000	0.000000	-0.000000	0.000000	-0.000000	1.470464	0.149758	0.157695	0.000000	0.000000	0.000000
0.161165	-0.000000	0.000000	0.000000	0.543996	0.081532	0.436958	0.000000	0.000000	0.000000	-0.000000	0.000000	0.000000	0.554153	0.103699	0.456923	0.000000	0.000000	0.000000	-0.000000	0.000000	0.000000	0.563747	0.115605	0.453015	0.000000	0.000000	0.000000	-0.000000	0.000000	0.000000	0.561319	0.113531	0.430803	0.000000	0.000000	0.000000	-0.000000	0.000000	0.000000	0.578207	0.158647	0.481398	0.000000	0.000000	0.000000	-0.000000	0.000000	0.000000	0.567366	0.130206	0.447165	0.000000	0.000000	0.000000	-0.000000	0.000000	0.000000	0.581842	0.188607	0.423767	0.000000	0.000000	0.000000	-0.000000	0.000000	-0.000000	1.698820	0.115164	0.146809	0.000000	0.000000	0.000000	-0.000000	0.000000	-0.000000	1.658801	0.125235	0.125361	0.000000	0.000000	0.000000	-0.000000	0.000000	-0.000000	1.625035	0.127331	0.133929	0.000000	0.000000	0.000000	-0.000000	0.000000	-0.000000	1.625570	0.122448	0.154443	0.000000	0.000000	0.000000	-0.000000	0.000000	-0.000000	1.548424	0.148464	0.106195	0.000000	0.000000	0.000000	-0.000000	0.000000	-0.000000	1.596703	0.131630	0.138761	0.000000	0.000000	0.000000	-0.000000	0.000000	-0.000000	1.483374	0.148828	0.158091	0.000000	0.000000	0.000000
0.163213	-0.000000	0.000000	0.000000	0.561776	0.087171	0.436479	0.000000	0.000000	0.000000	-0.000000	0.000000	0.000000	0.572762	0.109180	0.456699	0.000000	0.000000	0.000000	-0.000000	0.000000	0.000000	0.582772	0.121059	0.452822	0.000000	0.000000	0.000000	-0.000000	0.000000	0.000000	0.580282	0.119072	0.430584	0.000000	0.000000	0.000000	-0.000000	0.000000	0.000000	0.599012	0.163858	0.481698	0.000000	0.000000	0.000000	-0.000000	0.000000	0.000000	0.587013	0.135634	0.447138	0.000000	0.000000	0.000000	-0.000000	0.000000	0.000000	0.603978	0.193933	0.424406	0.000000	0.000000	0.000000	-0.000000	0.000000	-0.000000	1.740767	0.114823	0.148056	0.000000	0.000000	0.000000	-0.000000	0.000000	-0.000000	1.700267	0.124382	0.126572	0.000000	0.000000	0.000000	-0.000000	0.000000	-0.000000	1.666422	0.126103	0.135162	0.000000	0.000000	0.000000	-0.000000	0.000000	-0.000000	1.667205	0.121269	0.155714	0.000000	0.000000	0.000000	-0.000000	0.000000	-0.000000	1.588821	0.146285	0.107346	0.000000	0.000000	0.000000	-0.000000	0.000000	-0.000000	1.637903	0.130082	0.139992	0.000000	0.000000	0.000000	-0.000000	0.000000	-0.000000	1.523826	0.145998	0.159312	0.000000	0.000000	0.000000
0.164697	-0.000000	0.000000	0.000000	0.575070	0.091218	0.436320	0.000000	0.000000	0.000000	-0.000000	0.000000	0.000000	0.586651	0.113120	0.456677	0.000000	0.000000	0.000000	-0.000000	0.000000	0.000000	0.596951	0.124969	0.452807	0.000000	0.000000	0.000000	-0.000000	0.000000	0.000000	0.594398	0.123036	0.430558	0.000000	0.000000	0.000000	-0.000000	0.000000	0.000000	0.614435	0.167600	0.481951	0.000000	0.000000	0.000000	-0.000000	0.000000	0.000000	0.601612	0.139521	0.447215	0.000000	0.000000	0.000000	-0.000000	0.000000	0.000000	0.620255	0.197728	0.424849	0.000000	0.000000	0.000000	-0.000000	0.000000	-0.000000	1.770725	0.114673	0.148931	0.000000	0.000000	0.000000	-0.000000	0.000000	-0.000000	1.729897	0.123860	0.127420	0.000000	0.000000	0.000000	-0.000000	0.000000	-0.000000	1.696005	0.125311	0.136025	0.000000	0.000000	0.000000	-0.000000	0.000000	-0.000000	1.696964	0.120516	0.156606	0.000000	0.000000	0.000000	-0.000000	0.000000	-0.000000	1.617720	0.144798	0.108146	0.000000	0.000000	0.000000	-0.000000	0.000000	-0.000000	1.667360	0.129058	0.140853	0.000000	0.000000	0.000000	-0.000000	0.000000	-0.000000	1.552781	0.144048	0.160163	0.000000	0.000000	0.000000
0.165346	-0.000000	0.000000	0.000000	0.580980	0.092974	0.436300	0.000000	0.000000	0.000000	-0.000000	0.000000	0.000000	0.592820	0.114831	0.456703	0.000000	0.000000	0.000000	-0.000000	0.000000	0.000000	0.603244	0.126664	0.452834	0.000000	0.000000	0.000000	-0.000000	0.000000	0.000000	0.600658	0.124752	0.430581	0.000000	0.000000	0.000000	-0.000000	0.000000	0.000000	0.621261	0.169224	0.482071	0.000000	0.000000	0.000000	-0.000000	0.000000	0.000000	0.608080	0.141205	0.447274	0.000000	0.000000	0.000000	-0.000000	0.000000	0.000000	0.627425	0.199367	0.425037	0.000000	0.000000	0.000000	-0.000000	0.000000	-0.000000	1.783682	0.114632	0.149304	0.000000	0.000000	0.000000	-0.000000	0.000000	-0.000000	1.742715	0.123655	0.127781	0.000000	0.000000	0.000000	-0.000000	0.000000	-0.000000	1.708805	0.124989	0.136392	0.000000	0.000000	0.000000	-0.000000	0.000000	-0.000000	1.709840	0.120212	0.156987	0.000000	0.000000	0.000000	-0.000000	0.000000	-0.000000	1.630231	0.144173	0.108485	0.000000	0.000000	0.000000	-0.000000	0.000000	-0.000000	1.680108	0.128636	0.141219	0.000000	0.000000	0.000000	-0.000000	0.000000	-0.000000	1.565320	0.143222	0.160525	0.000000	0.000000	0.000000
0.167394	-0.000000	0.000000	0.000000	0.600046	0.098476	0.436403	0.000000	0.000000	0.000000	-0.000000	0.000000	0.000000	0.612706	0.120193	0.456906	0.000000	0.000000	0.000000	-0.000000	0.000000	0.000000	0.623520	0.131964	0.453032	0.000000	0.000000	0.000000	-0.000000	0.000000	0.000000	0.620813	0.130110	0.430775	0.000000	0.000000	0.000000	-0.000000	0.000000	0.000000	0.643181	0.174306	0.482478	0.000000	0.000000	0.000000	-0.000000	0.000000	0.000000	0.628883	0.146466	0.447547	0.000000	0.000000	0.000000	-0.000000	0.000000	0.000000	0.650335	0.204471	0.425607	0.000000	0.000000	0.000000	-0.000000	0.000000	-0.000000	1.824077	0.114592	0.150440	0.000000	0.000000	0.000000	-0.000000	0.000000	-0.000000	1.782692	0.123100	0.128878	0.000000	0.000000	0.000000	-0.000000	0.000000	-0.000000	1.748738	0.124066	0.137510	0.000000	0.000000	0.000000	-0.000000	0.000000	-0.000000	1.750007	0.119346	0.158144	0.000000	0.000000	0.000000	-0.000000	0.000000	-0.000000	1.669287	0.142291	0.109512	0.000000	0.000000	0.000000	-0.000000	0.000000	-0.000000	1.719886	0.127396	0.142332	0.000000	0.000000	0.000000	-0.000000	0.000000	-0.000000	1.604481	0.140715	0.161621	0.000000	0.000000	0.000000
